<svg version="1.1" xmlns="http://www.w3.org/2000/svg" viewBox="0 0 1282.427734375 409.923828125" width="1282.427734375" height="409.923828125">
  <!-- svg-source:excalidraw -->
  
  <defs>
    <style class="style-fonts">
      @font-face {
        font-family: "Virgil";
        src: url("https://excalidraw.com/Virgil.woff2");
      }
      @font-face {
        font-family: "Cascadia";
        src: url("https://excalidraw.com/Cascadia.woff2");
      }
      @font-face {
        font-family: "Assistant";
        src: url("https://excalidraw.com/Assistant-Regular.woff2");
      }
    </style>
    
  </defs>
  <rect x="0" y="0" width="1282.427734375" height="409.923828125" fill="#ffffff"></rect><g stroke-linecap="round" transform="translate(76.8125 98.611328125) rotate(0 61.84765625 30)"><path d="M15 0 C42.29 0.88, 68.44 0.48, 108.7 0 M15 0 C33.35 -0.62, 52.12 0.2, 108.7 0 M108.7 0 C118.69 1.9, 122.21 5.96, 123.7 15 M108.7 0 C118.23 1.54, 123.98 3.23, 123.7 15 M123.7 15 C123.72 22.99, 121.97 31.53, 123.7 45 M123.7 15 C124.3 24.38, 123.58 34.68, 123.7 45 M123.7 45 C125.5 53.65, 116.89 61.68, 108.7 60 M123.7 45 C124.61 55.76, 120.1 62.22, 108.7 60 M108.7 60 C87.2 59.99, 62.3 60.83, 15 60 M108.7 60 C81.66 59.39, 53.49 60.37, 15 60 M15 60 C6.44 61.19, -0.97 56.02, 0 45 M15 60 C4.93 59.76, 0.17 52.71, 0 45 M0 45 C-0.32 36.3, 0.93 30.05, 0 15 M0 45 C0.8 35.41, -0.71 24.41, 0 15 M0 15 C1.95 3.34, 6.63 1.48, 15 0 M0 15 C1.27 5.04, 5.65 2.11, 15 0" stroke="#1e1e1e" stroke-width="2" fill="none"></path></g><g transform="translate(87.79020690917969 103.611328125) rotate(0 50.86994934082031 25)"><text x="50.86994934082031" y="17.52" font-family="Virgil, Segoe UI Emoji" font-size="20px" fill="#1e1e1e" text-anchor="middle" style="white-space: pre;" direction="ltr" dominant-baseline="alphabetic">manuscript</text><text x="50.86994934082031" y="42.519999999999996" font-family="Virgil, Segoe UI Emoji" font-size="20px" fill="#1e1e1e" text-anchor="middle" style="white-space: pre;" direction="ltr" dominant-baseline="alphabetic">values</text></g><g stroke-linecap="round"><g transform="translate(135.26171875 173.767578125) rotate(0 0.16796875 51.552734375)"><path d="M0.96 0.73 C0.92 17.98, -0.63 85.81, -0.8 102.82 M0.01 0.06 C0.37 17.56, 1.49 86.89, 1.32 104.21" stroke="#1e1e1e" stroke-width="2" fill="none"></path></g><g transform="translate(135.26171875 173.767578125) rotate(0 0.16796875 51.552734375)"><path d="M-7.35 80.76 C-4.08 84.77, -3.55 91.96, 1.32 104.21 M-7.35 80.76 C-5.03 87.39, -2.15 94.39, 1.32 104.21" stroke="#1e1e1e" stroke-width="2" fill="none"></path></g><g transform="translate(135.26171875 173.767578125) rotate(0 0.16796875 51.552734375)"><path d="M9.75 80.67 C8.67 84.84, 4.84 92.05, 1.32 104.21 M9.75 80.67 C7.37 87.16, 5.56 94.19, 1.32 104.21" stroke="#1e1e1e" stroke-width="2" fill="none"></path></g></g><mask></mask><g stroke-linecap="round" transform="translate(10 288.552734375) rotate(0 123.2421875 55.685546875)"><path d="M27.84 0 C94.93 1.76, 166.04 -1.29, 218.64 0 M27.84 0 C83.14 0.87, 139.44 0.91, 218.64 0 M218.64 0 C237.36 0.97, 246.93 10.86, 246.48 27.84 M218.64 0 C235.01 1.7, 247.53 8.61, 246.48 27.84 M246.48 27.84 C248.51 49.05, 245.71 67.58, 246.48 83.53 M246.48 27.84 C246.79 41.6, 245.92 56.68, 246.48 83.53 M246.48 83.53 C246.43 101.26, 237.31 110.92, 218.64 111.37 M246.48 83.53 C244.73 103.65, 236.62 112.8, 218.64 111.37 M218.64 111.37 C162.63 112.34, 107.92 111.61, 27.84 111.37 M218.64 111.37 C147.06 109.28, 73.69 108.91, 27.84 111.37 M27.84 111.37 C10.43 111.18, 0.99 101.29, 0 83.53 M27.84 111.37 C7 112.36, 1.29 102.7, 0 83.53 M0 83.53 C-0.91 63.94, -1.06 47.41, 0 27.84 M0 83.53 C1.46 63.02, 0.05 42.13, 0 27.84 M0 27.84 C-0.12 8.87, 7.62 -1.63, 27.84 0 M0 27.84 C-1.14 7.04, 10.53 0.72, 27.84 0" stroke="#1e1e1e" stroke-width="2" fill="none"></path></g><g transform="translate(15 306.73828125) rotate(0 103.28990173339844 37.5)"><text x="0" y="17.52" font-family="Virgil, Segoe UI Emoji" font-size="20px" fill="#1e1e1e" text-anchor="start" style="white-space: pre;" direction="ltr" dominant-baseline="alphabetic">- defined ptms</text><text x="0" y="42.519999999999996" font-family="Virgil, Segoe UI Emoji" font-size="20px" fill="#1e1e1e" text-anchor="start" style="white-space: pre;" direction="ltr" dominant-baseline="alphabetic">- precursor tolerqnce</text><text x="0" y="67.52" font-family="Virgil, Segoe UI Emoji" font-size="20px" fill="#1e1e1e" text-anchor="start" style="white-space: pre;" direction="ltr" dominant-baseline="alphabetic">- fragment tolerance</text></g><g stroke-linecap="round" transform="translate(335.75 101.587890625) rotate(0 72.802734375 28.369140625)"><path d="M14.18 0 C55.56 0.56, 99.57 -0.24, 131.42 0 M14.18 0 C43.85 0.16, 72.7 -0.71, 131.42 0 M131.42 0 C140.81 0.2, 145.62 6.23, 145.61 14.18 M131.42 0 C138.74 0.37, 144.01 4.87, 145.61 14.18 M145.61 14.18 C146.45 21.95, 145.46 29.25, 145.61 42.55 M145.61 14.18 C144.76 20.7, 145 26.46, 145.61 42.55 M145.61 42.55 C144.58 50.89, 141.33 57.71, 131.42 56.74 M145.61 42.55 C145.57 53.99, 141.68 56.37, 131.42 56.74 M131.42 56.74 C99.28 54.1, 68.97 55.32, 14.18 56.74 M131.42 56.74 C102.75 54.87, 71.93 55.35, 14.18 56.74 M14.18 56.74 C5.53 56.41, -1.81 53.73, 0 42.55 M14.18 56.74 C3.94 55.01, -0.66 53.7, 0 42.55 M0 42.55 C0.49 34.81, -1.15 22.86, 0 14.18 M0 42.55 C-0.94 34.8, 0.13 29.32, 0 14.18 M0 14.18 C-0.82 2.96, 5.89 1.44, 14.18 0 M0 14.18 C1.54 5.14, 2.7 -1, 14.18 0" stroke="#1e1e1e" stroke-width="2" fill="none"></path></g><g transform="translate(350.84278869628906 117.45703125) rotate(0 57.70994567871094 12.5)"><text x="57.70994567871094" y="17.52" font-family="Virgil, Segoe UI Emoji" font-size="20px" fill="#1e1e1e" text-anchor="middle" style="white-space: pre;" direction="ltr" dominant-baseline="alphabetic">param-medic</text></g><g stroke-linecap="round"><g transform="translate(212.3203125 128.541015625) rotate(0 53.97265625 0.46484375)"><path d="M-0.22 -0.66 C17.95 -0.74, 90.98 -0.09, 108.91 0.26 M-1.79 1.61 C16.3 1.62, 90.45 1.81, 108.47 1.44" stroke="#1e1e1e" stroke-width="2" fill="none"></path></g><g transform="translate(212.3203125 128.541015625) rotate(0 53.97265625 0.46484375)"><path d="M85.04 10.16 C90.79 9.24, 97.66 4.13, 108.47 1.44 M85.04 10.16 C93.89 6.82, 101.27 4.83, 108.47 1.44" stroke="#1e1e1e" stroke-width="2" fill="none"></path></g><g transform="translate(212.3203125 128.541015625) rotate(0 53.97265625 0.46484375)"><path d="M84.91 -6.94 C90.81 -2.82, 97.71 -2.9, 108.47 1.44 M84.91 -6.94 C93.77 -4.43, 101.2 -0.57, 108.47 1.44" stroke="#1e1e1e" stroke-width="2" fill="none"></path></g></g><mask></mask><g transform="translate(216.4375 139.810546875) rotate(0 57.269935607910156 12.5)"><text x="0" y="17.52" font-family="Virgil, Segoe UI Emoji" font-size="20px" fill="#1e1e1e" text-anchor="start" style="white-space: pre;" direction="ltr" dominant-baseline="alphabetic">optimization</text></g><g stroke-linecap="round" transform="translate(337.947265625 216.234375) rotate(0 72.802734375 28.369140625)"><path d="M14.18 0 C58.61 -0.56, 99.03 -1.15, 131.42 0 M14.18 0 C55.65 -0.76, 98.18 -0.09, 131.42 0 M131.42 0 C141.19 0.17, 145.88 5.44, 145.61 14.18 M131.42 0 C138.88 1.5, 144.06 5.95, 145.61 14.18 M145.61 14.18 C145.68 23.76, 144.04 31.33, 145.61 42.55 M145.61 14.18 C145.87 23.16, 144.86 33.26, 145.61 42.55 M145.61 42.55 C144.87 53.99, 141.65 57.75, 131.42 56.74 M145.61 42.55 C146.73 54.07, 141.65 57.9, 131.42 56.74 M131.42 56.74 C104.78 57.23, 79.17 56.62, 14.18 56.74 M131.42 56.74 C102.33 55.82, 72.69 56.2, 14.18 56.74 M14.18 56.74 C5.38 55.95, 0.44 51.42, 0 42.55 M14.18 56.74 C6.83 58.44, -0.94 53.76, 0 42.55 M0 42.55 C1.93 38.2, -0.47 31.92, 0 14.18 M0 42.55 C0.03 34.14, -0.31 24.38, 0 14.18 M0 14.18 C-1.66 3.4, 5.53 -0.74, 14.18 0 M0 14.18 C1.21 2.72, 2.66 -1.25, 14.18 0" stroke="#1e1e1e" stroke-width="2" fill="none"></path></g><g transform="translate(383.7100296020508 232.103515625) rotate(0 27.03997039794922 12.5)"><text x="27.03997039794922" y="17.52" font-family="Virgil, Segoe UI Emoji" font-size="20px" fill="#1e1e1e" text-anchor="middle" style="white-space: pre;" direction="ltr" dominant-baseline="alphabetic">gpmdb</text></g><g stroke-linecap="round"><g transform="translate(486.81129118465833 129.1790235885586) rotate(0 75.173828125 1.0546875)"><path d="M-0.27 0.41 C24.78 0.89, 124.88 1.46, 149.88 1.75 M1.79 -0.43 C26.67 0.33, 124.21 2.45, 148.69 3.1" stroke="#1e1e1e" stroke-width="2" fill="none"></path></g><g transform="translate(486.81129118465833 129.1790235885586) rotate(0 75.173828125 1.0546875)"><path d="M125 11.09 C132.05 8.25, 137.07 5.89, 148.69 3.1 M125 11.09 C131.14 9.56, 138.46 6.92, 148.69 3.1" stroke="#1e1e1e" stroke-width="2" fill="none"></path></g><g transform="translate(486.81129118465833 129.1790235885586) rotate(0 75.173828125 1.0546875)"><path d="M125.41 -6.01 C132.19 -4.31, 137.1 -2.12, 148.69 3.1 M125.41 -6.01 C131.6 -2.37, 138.8 0.16, 148.69 3.1" stroke="#1e1e1e" stroke-width="2" fill="none"></path></g></g><mask></mask><g transform="translate(486.73006439208984 139.689453125) rotate(0 57.269935607910156 12.5)"><text x="0" y="17.52" font-family="Virgil, Segoe UI Emoji" font-size="20px" fill="#1e1e1e" text-anchor="start" style="white-space: pre;" direction="ltr" dominant-baseline="alphabetic">optimization</text></g><g stroke-linecap="round" transform="translate(340.291015625 10) rotate(0 72.802734375 28.369140625)"><path d="M14.18 0 C52.08 -2.02, 88.52 -1.73, 131.42 0 M14.18 0 C59.06 0.55, 101.99 -0.58, 131.42 0 M131.42 0 C142.39 -1.66, 144.36 5.37, 145.61 14.18 M131.42 0 C138.86 0.3, 144.63 2.46, 145.61 14.18 M145.61 14.18 C143.55 21.52, 145.16 26.31, 145.61 42.55 M145.61 14.18 C146.6 24.22, 145.31 33.98, 145.61 42.55 M145.61 42.55 C145.47 50.43, 141.97 57.33, 131.42 56.74 M145.61 42.55 C146.58 51.64, 140.52 57.99, 131.42 56.74 M131.42 56.74 C101.53 57.1, 68.84 55.85, 14.18 56.74 M131.42 56.74 C95.69 56.62, 60.88 57.76, 14.18 56.74 M14.18 56.74 C2.98 57.65, -1.25 51.61, 0 42.55 M14.18 56.74 C3.88 54.71, -1.23 52.73, 0 42.55 M0 42.55 C-1.01 35.4, 0.63 26.55, 0 14.18 M0 42.55 C-0.81 34.96, 0.13 24.99, 0 14.18 M0 14.18 C-0.62 6.03, 3.8 0.7, 14.18 0 M0 14.18 C0.64 5.27, 5.56 -1.59, 14.18 0" stroke="#1e1e1e" stroke-width="2" fill="none"></path></g><g transform="translate(365.7137985229492 25.869140625) rotate(0 47.37995147705078 12.5)"><text x="47.37995147705078" y="17.52" font-family="Virgil, Segoe UI Emoji" font-size="20px" fill="#1e1e1e" text-anchor="middle" style="white-space: pre;" direction="ltr" dominant-baseline="alphabetic">msfragger</text></g><g stroke-linecap="round"><g transform="translate(203.03515625 82.068359375) rotate(0 50.68359375 -19.927734375)"><path d="M-0.43 -0.68 C16.56 -7.23, 85.1 -32.5, 102.05 -39.07" stroke="#1e1e1e" stroke-width="2.5" fill="none" stroke-dasharray="8 10"></path></g></g><mask></mask><g stroke-linecap="round" transform="translate(849.07421875 247.6484375) rotate(0 123.2421875 51.958984375)"><path d="M25.98 0 C63.31 -0.15, 105.18 -1.15, 220.5 0 M25.98 0 C80.53 0.86, 134.32 1.14, 220.5 0 M220.5 0 C238.04 -0.94, 247.97 6.82, 246.48 25.98 M220.5 0 C239.13 -2.05, 248.34 8.85, 246.48 25.98 M246.48 25.98 C245.92 37.08, 247.03 45.48, 246.48 77.94 M246.48 25.98 C247.12 44.24, 245.86 63.37, 246.48 77.94 M246.48 77.94 C245.24 95.51, 239.58 104.49, 220.5 103.92 M246.48 77.94 C244.38 95.05, 237.35 103.61, 220.5 103.92 M220.5 103.92 C144.71 104.81, 69.41 105.02, 25.98 103.92 M220.5 103.92 C147.8 104.04, 73.67 103.1, 25.98 103.92 M25.98 103.92 C7.58 102.06, -0.49 95.37, 0 77.94 M25.98 103.92 C7.53 105.25, -0.74 97.18, 0 77.94 M0 77.94 C1.57 63.26, -0.39 46.02, 0 25.98 M0 77.94 C-0.89 60.59, -0.45 40.8, 0 25.98 M0 25.98 C-1.39 9.77, 7.73 -1.03, 25.98 0 M0 25.98 C1.68 8.88, 10.07 -0.42, 25.98 0" stroke="#1e1e1e" stroke-width="2" fill="none"></path></g><g transform="translate(854.07421875 262.107421875) rotate(0 103.28990173339844 37.5)"><text x="0" y="17.52" font-family="Virgil, Segoe UI Emoji" font-size="20px" fill="#1e1e1e" text-anchor="start" style="white-space: pre;" direction="ltr" dominant-baseline="alphabetic">- defined ptms</text><text x="0" y="42.519999999999996" font-family="Virgil, Segoe UI Emoji" font-size="20px" fill="#1e1e1e" text-anchor="start" style="white-space: pre;" direction="ltr" dominant-baseline="alphabetic">- precursor tolerqnce</text><text x="0" y="67.52" font-family="Virgil, Segoe UI Emoji" font-size="20px" fill="#1e1e1e" text-anchor="start" style="white-space: pre;" direction="ltr" dominant-baseline="alphabetic">- fragment tolerance</text></g><g stroke-linecap="round" transform="translate(657.630859375 101.13671875) rotate(0 72.802734375 30)"><path d="M15 0 C56.73 -0.26, 101.23 0.65, 130.61 0 M15 0 C59.43 0.56, 103.83 0.47, 130.61 0 M130.61 0 C140.3 -1.76, 144.71 3.56, 145.61 15 M130.61 0 C140.79 2.26, 147.18 3.88, 145.61 15 M145.61 15 C145.61 23.92, 145.92 33.78, 145.61 45 M145.61 15 C145.11 22.11, 144.85 29.32, 145.61 45 M145.61 45 C146.2 56.75, 141.47 58.84, 130.61 60 M145.61 45 C145.55 53.86, 139.64 59.45, 130.61 60 M130.61 60 C92.93 61.31, 57.06 62.46, 15 60 M130.61 60 C103.98 60.07, 78.17 60.89, 15 60 M15 60 C4.65 58.5, -1.72 53.63, 0 45 M15 60 C6.23 59.4, 2.26 55.22, 0 45 M0 45 C-0.87 35.97, 0.54 28.34, 0 15 M0 45 C-0.33 36.65, -0.51 27.25, 0 15 M0 15 C-1.06 3.12, 6.25 -0.98, 15 0 M0 15 C-0.95 6.13, 4.01 -2.01, 15 0" stroke="#1e1e1e" stroke-width="2" fill="none"></path></g><g transform="translate(687.7236328125 106.13671875) rotate(0 42.7099609375 25)"><text x="42.7099609375" y="17.52" font-family="Virgil, Segoe UI Emoji" font-size="20px" fill="#1e1e1e" text-anchor="middle" style="white-space: pre;" direction="ltr" dominant-baseline="alphabetic">full ptm </text><text x="42.7099609375" y="42.519999999999996" font-family="Virgil, Segoe UI Emoji" font-size="20px" fill="#1e1e1e" text-anchor="middle" style="white-space: pre;" direction="ltr" dominant-baseline="alphabetic">search</text></g><g stroke-linecap="round" transform="translate(907.205078125 101.189453125) rotate(0 72.916015625 30)"><path d="M15 0 C44.12 0.55, 72.95 -1.44, 130.83 0 M15 0 C56.97 0.87, 98.96 0.32, 130.83 0 M130.83 0 C140.49 -0.19, 146.26 5.75, 145.83 15 M130.83 0 C139.04 1.39, 146.16 4.99, 145.83 15 M145.83 15 C144.25 24.39, 146.78 35.69, 145.83 45 M145.83 15 C144.75 20.54, 146.41 27.59, 145.83 45 M145.83 45 C145.02 54.71, 140.98 61.22, 130.83 60 M145.83 45 C144.4 55.97, 139.39 57.94, 130.83 60 M130.83 60 C96.17 61.39, 61.83 58.91, 15 60 M130.83 60 C84.1 59.06, 37.6 58.83, 15 60 M15 60 C4 59.58, -0.87 55.97, 0 45 M15 60 C4.76 61.44, -1.11 53.5, 0 45 M0 45 C0.81 36.6, 0.11 24.67, 0 15 M0 45 C-0.58 36.23, -0.82 26.09, 0 15 M0 15 C-0.63 4.45, 5.07 1.83, 15 0 M0 15 C1.95 5.02, 4.8 -1.45, 15 0" stroke="#1e1e1e" stroke-width="2" fill="none"></path></g><g transform="translate(922.8511581420898 106.189453125) rotate(0 57.269935607910156 25)"><text x="57.269935607910156" y="17.52" font-family="Virgil, Segoe UI Emoji" font-size="20px" fill="#1e1e1e" text-anchor="middle" style="white-space: pre;" direction="ltr" dominant-baseline="alphabetic">tolerances</text><text x="57.269935607910156" y="42.519999999999996" font-family="Virgil, Segoe UI Emoji" font-size="20px" fill="#1e1e1e" text-anchor="middle" style="white-space: pre;" direction="ltr" dominant-baseline="alphabetic">optimization</text></g><g stroke-linecap="round"><g transform="translate(816.2690620747767 130.9293840074705) rotate(0 36.365234375 0.2687061409383489)"><path d="M-0.05 -0.76 C11.83 -0.66, 59.41 -0.08, 71.71 0.16 M-1.53 1.46 C10.67 1.77, 61.38 1.39, 73.89 1.51" stroke="#1e1e1e" stroke-width="2" fill="none"></path></g><g transform="translate(816.2690620747767 130.9293840074705) rotate(0 36.365234375 0.2687061409383489)"><path d="M50.4 10.06 C57.11 5.48, 65.69 6, 73.89 1.51 M50.4 10.06 C56.99 7.24, 64.24 5.04, 73.89 1.51" stroke="#1e1e1e" stroke-width="2" fill="none"></path></g><g transform="translate(816.2690620747767 130.9293840074705) rotate(0 36.365234375 0.2687061409383489)"><path d="M50.4 -7.04 C57.05 -5.84, 65.63 0.46, 73.89 1.51 M50.4 -7.04 C57.12 -4.48, 64.36 -1.29, 73.89 1.51" stroke="#1e1e1e" stroke-width="2" fill="none"></path></g></g><mask></mask><g stroke-linecap="round" transform="translate(1126.822265625 95.794921875) rotate(0 72.802734375 30)"><path d="M15 0 C45.36 0.99, 80.73 -1.5, 130.61 0 M15 0 C47.8 0.49, 82.31 -0.26, 130.61 0 M130.61 0 C140.9 0.81, 143.69 4.54, 145.61 15 M130.61 0 C139.43 1.85, 147.79 5.85, 145.61 15 M145.61 15 C145.38 22.11, 145.88 32.01, 145.61 45 M145.61 15 C145.62 20.32, 145.91 27.04, 145.61 45 M145.61 45 C146.53 56.79, 141.24 61.59, 130.61 60 M145.61 45 C143.87 56.57, 140.25 61.26, 130.61 60 M130.61 60 C104.23 60.77, 79.77 59.64, 15 60 M130.61 60 C85.07 59.92, 39.98 60.08, 15 60 M15 60 C3.58 58.3, 1.59 53.41, 0 45 M15 60 C7.06 62.24, -1.77 55.42, 0 45 M0 45 C0.34 34.26, -0.91 21.73, 0 15 M0 45 C0.37 38.49, -0.32 31.05, 0 15 M0 15 C1.73 6.87, 6.16 0.03, 15 0 M0 15 C0.89 3.85, 4.7 0.98, 15 0" stroke="#1e1e1e" stroke-width="2" fill="none"></path></g><g transform="translate(1162.0450439453125 100.794921875) rotate(0 37.5799560546875 25)"><text x="37.5799560546875" y="17.52" font-family="Virgil, Segoe UI Emoji" font-size="20px" fill="#1e1e1e" text-anchor="middle" style="white-space: pre;" direction="ltr" dominant-baseline="alphabetic">re-write</text><text x="37.5799560546875" y="42.519999999999996" font-family="Virgil, Segoe UI Emoji" font-size="20px" fill="#1e1e1e" text-anchor="middle" style="white-space: pre;" direction="ltr" dominant-baseline="alphabetic">SDRF</text></g><g stroke-linecap="round"><g transform="translate(1054.3926939975659 128.0189036987664) rotate(0 29.072265625 -0.18713347815929637)"><path d="M-0.8 0 C9.14 -0.14, 48.83 -1.03, 58.62 -0.9 M0.98 -1.04 C10.89 -1.02, 48.58 0.35, 57.93 0.36" stroke="#1e1e1e" stroke-width="2" fill="none"></path></g><g transform="translate(1054.3926939975659 128.0189036987664) rotate(0 29.072265625 -0.18713347815929637)"><path d="M34.26 8.42 C39.42 7.62, 43.67 4.71, 57.93 0.36 M34.26 8.42 C44.43 4.4, 52.69 1.08, 57.93 0.36" stroke="#1e1e1e" stroke-width="2" fill="none"></path></g><g transform="translate(1054.3926939975659 128.0189036987664) rotate(0 29.072265625 -0.18713347815929637)"><path d="M34.61 -8.68 C39.68 -5.76, 43.86 -4.96, 57.93 0.36 M34.61 -8.68 C44.69 -5.99, 52.81 -2.6, 57.93 0.36" stroke="#1e1e1e" stroke-width="2" fill="none"></path></g></g><mask></mask><g stroke-linecap="round"><g transform="translate(197.99002929367123 170.4891910549253) rotate(0 60.162109375 37.208984375)"><path d="M0.99 0.33 C21.26 12.95, 100.89 62.27, 120.88 74.77" stroke="#1e1e1e" stroke-width="2.5" fill="none" stroke-dasharray="8 10"></path></g></g><mask></mask><g stroke-linecap="round"><g transform="translate(972.3751158725659 174.58784288412357) rotate(0 0.63671875 27.22183114093835)"><path d="M-1.2 0.46 C-1.13 9.45, -0.31 44.21, 0.22 53.39 M0.37 -0.34 C0.82 8.8, 2.18 45.35, 2.38 54.38" stroke="#1e1e1e" stroke-width="2" fill="none"></path></g><g transform="translate(972.3751158725659 174.58784288412357) rotate(0 0.63671875 27.22183114093835)"><path d="M-6.9 31.16 C-3.61 36.06, -3.51 45.57, 2.38 54.38 M-6.9 31.16 C-3.67 40.73, 1.49 49.29, 2.38 54.38" stroke="#1e1e1e" stroke-width="2" fill="none"></path></g><g transform="translate(972.3751158725659 174.58784288412357) rotate(0 0.63671875 27.22183114093835)"><path d="M10.2 30.63 C8.65 35.51, 3.92 45.17, 2.38 54.38 M10.2 30.63 C6.71 40.29, 5.15 49.06, 2.38 54.38" stroke="#1e1e1e" stroke-width="2" fill="none"></path></g></g><mask></mask><g stroke-linecap="round"><g transform="translate(510.8828125 247.205078125) rotate(0 83.71484375 -33.646484375)"><path d="M-0.78 0.48 C17.84 -0.38, 83.38 5.97, 111.32 -5.41 C139.26 -16.78, 157.48 -57.55, 166.86 -67.76" stroke="#1e1e1e" stroke-width="2.5" fill="none" stroke-dasharray="8 10"></path></g><g transform="translate(510.8828125 247.205078125) rotate(0 83.71484375 -33.646484375)"><path d="M160.62 -43.55 C163.12 -48.76, 164.88 -57.29, 166.86 -67.76" stroke="#1e1e1e" stroke-width="2.5" fill="none"></path></g><g transform="translate(510.8828125 247.205078125) rotate(0 83.71484375 -33.646484375)"><path d="M146.52 -53.23 C152.73 -55.78, 158.23 -61.75, 166.86 -67.76" stroke="#1e1e1e" stroke-width="2.5" fill="none"></path></g></g><mask></mask><g stroke-linecap="round"><g transform="translate(522.8046875 30.236328125) rotate(0 79.853515625 21.275390625)"><path d="M1.15 -0.2 C16.67 0.74, 65.57 -1.15, 91.97 5.8 C118.37 12.75, 148.09 35.55, 159.55 41.49" stroke="#1e1e1e" stroke-width="2.5" fill="none" stroke-dasharray="8 10"></path></g><g transform="translate(522.8046875 30.236328125) rotate(0 79.853515625 21.275390625)"><path d="M135.05 36.47 C139.65 39.07, 146.86 37.98, 159.55 41.49" stroke="#1e1e1e" stroke-width="2.5" fill="none"></path></g><g transform="translate(522.8046875 30.236328125) rotate(0 79.853515625 21.275390625)"><path d="M144.01 21.9 C146.83 27.52, 152.23 29.36, 159.55 41.49" stroke="#1e1e1e" stroke-width="2.5" fill="none"></path></g></g><mask></mask></svg>